<svg id="SvgjsSvg1001" width="288" height="288" xmlns="http://www.w3.org/2000/svg" version="1.1" xmlns:xlink="http://www.w3.org/1999/xlink" xmlns:svgjs="http://svgjs.com/svgjs"><defs id="SvgjsDefs1002"></defs><g id="SvgjsG1008"><svg xmlns="http://www.w3.org/2000/svg" fill="none" viewBox="0 0 49 48" width="288" height="288"><path fill="#49de80" d="M24.5 12.75C24.5 18.9632 19.4632 24 13.25 24H2V12.75C2 6.53679 7.03679 1.5 13.25 1.5 19.4632 1.5 24.5 6.53679 24.5 12.75zM24.5 35.25C24.5 29.0368 29.5368 24 35.75 24H47V35.25C47 41.4632 41.9632 46.5 35.75 46.5 29.5368 46.5 24.5 41.4632 24.5 35.25zM2 35.25C2 41.4632 7.03679 46.5 13.25 46.5H24.5V35.25C24.5 29.0368 19.4632 24 13.25 24 7.03679 24 2 29.0368 2 35.25zM47 12.75C47 6.53679 41.9632 1.5 35.75 1.5H24.5V12.75C24.5 18.9632 29.5368 24 35.75 24 41.9632 24 47 18.9632 47 12.75z" class="ccustom color17CF97 svgShape"></path></svg></g></svg>